<mxfile host="app.diagrams.net" modified="2021-12-18T17:32:46.200Z" agent="5.0 (Macintosh; Intel Mac OS X 10_14_6) AppleWebKit/537.36 (KHTML, like Gecko) Chrome/95.0.4638.69 Safari/537.36" etag="W4JDET5j4kitOdsGHPBP" version="15.9.6" type="github">
  <diagram id="C5RBs43oDa-KdzZeNtuy" name="Page-1">
    <mxGraphModel dx="1791" dy="657" grid="0" gridSize="10" guides="1" tooltips="1" connect="1" arrows="1" fold="1" page="0" pageScale="1" pageWidth="827" pageHeight="1169" background="#FFFFFF" math="0" shadow="0">
      <root>
        <mxCell id="WIyWlLk6GJQsqaUBKTNV-0" />
        <mxCell id="WIyWlLk6GJQsqaUBKTNV-1" parent="WIyWlLk6GJQsqaUBKTNV-0" />
        <mxCell id="KVTQln2U7VDyB-NZJ23g-1" value="" style="edgeStyle=orthogonalEdgeStyle;rounded=0;orthogonalLoop=1;jettySize=auto;html=1;fontColor=#000000;labelBackgroundColor=none;" edge="1" parent="WIyWlLk6GJQsqaUBKTNV-1" source="WIyWlLk6GJQsqaUBKTNV-3" target="KVTQln2U7VDyB-NZJ23g-0">
          <mxGeometry relative="1" as="geometry" />
        </mxCell>
        <mxCell id="WIyWlLk6GJQsqaUBKTNV-3" value="&lt;pre style=&quot;font-family: &amp;quot;jetbrains mono&amp;quot;; font-size: 10.5pt;&quot;&gt;&lt;span style=&quot;&quot;&gt;inet_create&lt;/span&gt;&lt;/pre&gt;" style="rounded=1;whiteSpace=wrap;html=1;fontSize=12;glass=0;strokeWidth=1;shadow=0;labelBackgroundColor=none;fontColor=#000000;" parent="WIyWlLk6GJQsqaUBKTNV-1" vertex="1">
          <mxGeometry x="160" y="80" width="120" height="40" as="geometry" />
        </mxCell>
        <mxCell id="KVTQln2U7VDyB-NZJ23g-3" value="" style="edgeStyle=orthogonalEdgeStyle;rounded=0;orthogonalLoop=1;jettySize=auto;html=1;fontColor=#000000;labelBackgroundColor=none;" edge="1" parent="WIyWlLk6GJQsqaUBKTNV-1" source="KVTQln2U7VDyB-NZJ23g-0" target="KVTQln2U7VDyB-NZJ23g-2">
          <mxGeometry relative="1" as="geometry" />
        </mxCell>
        <mxCell id="KVTQln2U7VDyB-NZJ23g-0" value="&lt;pre style=&quot;font-family: &amp;quot;jetbrains mono&amp;quot;; font-size: 10.5pt;&quot;&gt;&lt;pre style=&quot;font-family: &amp;quot;jetbrains mono&amp;quot; ; font-size: 10.5pt&quot;&gt;sk-&amp;gt;&lt;span style=&quot;&quot;&gt;sk_prot&lt;/span&gt;-&amp;gt;init(sk)&lt;span style=&quot;&quot;&gt;;&lt;/span&gt;&lt;/pre&gt;&lt;/pre&gt;" style="rounded=1;whiteSpace=wrap;html=1;fontSize=12;glass=0;strokeWidth=1;shadow=0;labelBackgroundColor=none;fontColor=#000000;" vertex="1" parent="WIyWlLk6GJQsqaUBKTNV-1">
          <mxGeometry x="135" y="200" width="170" height="40" as="geometry" />
        </mxCell>
        <mxCell id="KVTQln2U7VDyB-NZJ23g-7" value="" style="edgeStyle=orthogonalEdgeStyle;rounded=0;orthogonalLoop=1;jettySize=auto;html=1;fontColor=#000000;labelBackgroundColor=none;" edge="1" parent="WIyWlLk6GJQsqaUBKTNV-1" source="KVTQln2U7VDyB-NZJ23g-2" target="KVTQln2U7VDyB-NZJ23g-6">
          <mxGeometry relative="1" as="geometry" />
        </mxCell>
        <mxCell id="KVTQln2U7VDyB-NZJ23g-40" value="" style="edgeStyle=orthogonalEdgeStyle;rounded=0;orthogonalLoop=1;jettySize=auto;html=1;fontColor=#000000;labelBackgroundColor=none;entryX=1;entryY=0.5;entryDx=0;entryDy=0;" edge="1" parent="WIyWlLk6GJQsqaUBKTNV-1" source="KVTQln2U7VDyB-NZJ23g-2" target="KVTQln2U7VDyB-NZJ23g-12">
          <mxGeometry relative="1" as="geometry">
            <mxPoint x="3" y="412" as="targetPoint" />
          </mxGeometry>
        </mxCell>
        <mxCell id="KVTQln2U7VDyB-NZJ23g-2" value="&lt;pre style=&quot;font-family: &amp;quot;jetbrains mono&amp;quot;; font-size: 10.5pt;&quot;&gt;&lt;pre style=&quot;font-family: &amp;quot;jetbrains mono&amp;quot; ; font-size: 10.5pt&quot;&gt;&lt;pre style=&quot;font-family: &amp;quot;jetbrains mono&amp;quot; ; font-size: 10.5pt&quot;&gt;&lt;span style=&quot;&quot;&gt;tcp_init_sock&lt;/span&gt;&lt;/pre&gt;&lt;/pre&gt;&lt;/pre&gt;" style="rounded=1;whiteSpace=wrap;html=1;fontSize=12;glass=0;strokeWidth=1;shadow=0;labelBackgroundColor=none;fillColor=#FF3399;fontColor=#000000;" vertex="1" parent="WIyWlLk6GJQsqaUBKTNV-1">
          <mxGeometry x="135" y="307" width="170" height="40" as="geometry" />
        </mxCell>
        <mxCell id="KVTQln2U7VDyB-NZJ23g-9" value="" style="edgeStyle=orthogonalEdgeStyle;rounded=0;orthogonalLoop=1;jettySize=auto;html=1;fontColor=#000000;labelBackgroundColor=none;" edge="1" parent="WIyWlLk6GJQsqaUBKTNV-1" source="KVTQln2U7VDyB-NZJ23g-6">
          <mxGeometry relative="1" as="geometry">
            <mxPoint x="69" y="497" as="targetPoint" />
          </mxGeometry>
        </mxCell>
        <mxCell id="KVTQln2U7VDyB-NZJ23g-6" value="&lt;pre style=&quot;font-family: &amp;quot;jetbrains mono&amp;quot;; font-size: 10.5pt;&quot;&gt;&lt;pre style=&quot;font-family: &amp;quot;jetbrains mono&amp;quot; ; font-size: 10.5pt&quot;&gt;&lt;pre style=&quot;font-family: &amp;quot;jetbrains mono&amp;quot; ; font-size: 10.5pt&quot;&gt;&lt;pre style=&quot;font-family: &amp;quot;jetbrains mono&amp;quot;; font-size: 10.5pt;&quot;&gt;&lt;span style=&quot;&quot;&gt;tcp_assign_congestion_control&lt;/span&gt;&lt;/pre&gt;&lt;/pre&gt;&lt;/pre&gt;&lt;/pre&gt;" style="rounded=1;whiteSpace=wrap;html=1;fontSize=12;glass=0;strokeWidth=1;shadow=0;labelBackgroundColor=none;fillColor=#FF3399;fontColor=#000000;" vertex="1" parent="WIyWlLk6GJQsqaUBKTNV-1">
          <mxGeometry x="112" y="440" width="217" height="40" as="geometry" />
        </mxCell>
        <mxCell id="KVTQln2U7VDyB-NZJ23g-33" value="" style="edgeStyle=orthogonalEdgeStyle;rounded=0;orthogonalLoop=1;jettySize=auto;html=1;fontColor=#000000;labelBackgroundColor=none;" edge="1" parent="WIyWlLk6GJQsqaUBKTNV-1" source="KVTQln2U7VDyB-NZJ23g-12" target="KVTQln2U7VDyB-NZJ23g-29">
          <mxGeometry relative="1" as="geometry" />
        </mxCell>
        <mxCell id="KVTQln2U7VDyB-NZJ23g-12" value="各种窗口的初始化" style="swimlane;fontStyle=0;childLayout=stackLayout;horizontal=1;startSize=30;horizontalStack=0;resizeParent=1;resizeParentMax=0;resizeLast=0;collapsible=1;marginBottom=0;labelBackgroundColor=none;fontColor=#000000;fillColor=#FFFFFF;" vertex="1" collapsed="1" parent="WIyWlLk6GJQsqaUBKTNV-1">
          <mxGeometry x="-74" y="296" width="135" height="30" as="geometry">
            <mxRectangle x="-74" y="296" width="140" height="152" as="alternateBounds" />
          </mxGeometry>
        </mxCell>
        <mxCell id="KVTQln2U7VDyB-NZJ23g-13" value="1.snd_cwnd = 10&#xa;" style="text;strokeColor=none;fillColor=none;align=left;verticalAlign=middle;spacingLeft=4;spacingRight=4;overflow=hidden;points=[[0,0.5],[1,0.5]];portConstraint=eastwest;rotatable=0;labelBackgroundColor=none;fontColor=#000000;" vertex="1" parent="KVTQln2U7VDyB-NZJ23g-12">
          <mxGeometry y="30" width="135" height="30" as="geometry" />
        </mxCell>
        <mxCell id="KVTQln2U7VDyB-NZJ23g-14" value="2.sk_sndbuf = sysctl_tcp_wmem[1]&#xa;" style="text;strokeColor=none;fillColor=none;align=left;verticalAlign=middle;spacingLeft=4;spacingRight=4;overflow=hidden;points=[[0,0.5],[1,0.5]];portConstraint=eastwest;rotatable=0;labelBackgroundColor=none;fontColor=#000000;" vertex="1" parent="KVTQln2U7VDyB-NZJ23g-12">
          <mxGeometry y="60" width="135" height="30" as="geometry" />
        </mxCell>
        <mxCell id="KVTQln2U7VDyB-NZJ23g-15" value="3. sk_rcvbuf = ysctl_tcp_rmem[1]" style="text;strokeColor=none;fillColor=none;align=left;verticalAlign=middle;spacingLeft=4;spacingRight=4;overflow=hidden;points=[[0,0.5],[1,0.5]];portConstraint=eastwest;rotatable=0;labelBackgroundColor=none;fontColor=#000000;" vertex="1" parent="KVTQln2U7VDyB-NZJ23g-12">
          <mxGeometry y="90" width="135" height="31" as="geometry" />
        </mxCell>
        <mxCell id="KVTQln2U7VDyB-NZJ23g-57" value="4. tp-&gt;rtt_min初始化" style="text;strokeColor=none;fillColor=none;align=left;verticalAlign=middle;spacingLeft=4;spacingRight=4;overflow=hidden;points=[[0,0.5],[1,0.5]];portConstraint=eastwest;rotatable=0;labelBackgroundColor=none;fontColor=#000000;" vertex="1" parent="KVTQln2U7VDyB-NZJ23g-12">
          <mxGeometry y="121" width="135" height="31" as="geometry" />
        </mxCell>
        <mxCell id="KVTQln2U7VDyB-NZJ23g-29" value="各种tcp的初始化" style="swimlane;fontStyle=0;childLayout=stackLayout;horizontal=1;startSize=30;horizontalStack=0;resizeParent=1;resizeParentMax=0;resizeLast=0;collapsible=1;marginBottom=0;labelBackgroundColor=none;fontColor=#000000;fillColor=#FFFFFF;" vertex="1" collapsed="1" parent="WIyWlLk6GJQsqaUBKTNV-1">
          <mxGeometry x="-253" y="291" width="135" height="30" as="geometry">
            <mxRectangle x="-67" y="386" width="140" height="121" as="alternateBounds" />
          </mxGeometry>
        </mxCell>
        <mxCell id="KVTQln2U7VDyB-NZJ23g-30" value="mss_cache = 536" style="text;strokeColor=none;fillColor=none;align=left;verticalAlign=middle;spacingLeft=4;spacingRight=4;overflow=hidden;points=[[0,0.5],[1,0.5]];portConstraint=eastwest;rotatable=0;labelBackgroundColor=none;fontColor=#000000;" vertex="1" parent="KVTQln2U7VDyB-NZJ23g-29">
          <mxGeometry y="30" width="135" height="30" as="geometry" />
        </mxCell>
        <mxCell id="KVTQln2U7VDyB-NZJ23g-31" value="快速空洞重传reordering = sysctl_tcp_reordering" style="text;strokeColor=none;fillColor=none;align=left;verticalAlign=middle;spacingLeft=4;spacingRight=4;overflow=hidden;points=[[0,0.5],[1,0.5]];portConstraint=eastwest;rotatable=0;labelBackgroundColor=none;fontColor=#000000;" vertex="1" parent="KVTQln2U7VDyB-NZJ23g-29">
          <mxGeometry y="60" width="135" height="30" as="geometry" />
        </mxCell>
        <mxCell id="KVTQln2U7VDyB-NZJ23g-32" value="3. sk_rcvbuf = ysctl_tcp_rmem[1]" style="text;strokeColor=none;fillColor=none;align=left;verticalAlign=middle;spacingLeft=4;spacingRight=4;overflow=hidden;points=[[0,0.5],[1,0.5]];portConstraint=eastwest;rotatable=0;labelBackgroundColor=none;fontColor=#000000;" vertex="1" parent="KVTQln2U7VDyB-NZJ23g-29">
          <mxGeometry y="90" width="135" height="31" as="geometry" />
        </mxCell>
        <mxCell id="KVTQln2U7VDyB-NZJ23g-34" value="List" style="swimlane;fontStyle=0;childLayout=stackLayout;horizontal=1;startSize=30;horizontalStack=0;resizeParent=1;resizeParentMax=0;resizeLast=0;collapsible=1;marginBottom=0;labelBackgroundColor=none;fontColor=#000000;fillColor=#FFFFFF;" vertex="1" parent="WIyWlLk6GJQsqaUBKTNV-1">
          <mxGeometry x="-3" y="511" width="140" height="120" as="geometry" />
        </mxCell>
        <mxCell id="KVTQln2U7VDyB-NZJ23g-35" value="Item 1" style="text;strokeColor=none;fillColor=none;align=left;verticalAlign=middle;spacingLeft=4;spacingRight=4;overflow=hidden;points=[[0,0.5],[1,0.5]];portConstraint=eastwest;rotatable=0;labelBackgroundColor=none;fontColor=#000000;" vertex="1" parent="KVTQln2U7VDyB-NZJ23g-34">
          <mxGeometry y="30" width="140" height="30" as="geometry" />
        </mxCell>
        <mxCell id="KVTQln2U7VDyB-NZJ23g-36" value="Item 2" style="text;strokeColor=none;fillColor=none;align=left;verticalAlign=middle;spacingLeft=4;spacingRight=4;overflow=hidden;points=[[0,0.5],[1,0.5]];portConstraint=eastwest;rotatable=0;labelBackgroundColor=none;fontColor=#000000;" vertex="1" parent="KVTQln2U7VDyB-NZJ23g-34">
          <mxGeometry y="60" width="140" height="30" as="geometry" />
        </mxCell>
        <mxCell id="KVTQln2U7VDyB-NZJ23g-37" value="Item 3" style="text;strokeColor=none;fillColor=none;align=left;verticalAlign=middle;spacingLeft=4;spacingRight=4;overflow=hidden;points=[[0,0.5],[1,0.5]];portConstraint=eastwest;rotatable=0;labelBackgroundColor=none;fontColor=#000000;" vertex="1" parent="KVTQln2U7VDyB-NZJ23g-34">
          <mxGeometry y="90" width="140" height="30" as="geometry" />
        </mxCell>
        <mxCell id="KVTQln2U7VDyB-NZJ23g-44" value="" style="edgeStyle=orthogonalEdgeStyle;rounded=0;orthogonalLoop=1;jettySize=auto;html=1;fontColor=#000000;labelBackgroundColor=none;" edge="1" parent="WIyWlLk6GJQsqaUBKTNV-1" source="KVTQln2U7VDyB-NZJ23g-41" target="KVTQln2U7VDyB-NZJ23g-49">
          <mxGeometry relative="1" as="geometry">
            <mxPoint x="425" y="321" as="targetPoint" />
          </mxGeometry>
        </mxCell>
        <mxCell id="KVTQln2U7VDyB-NZJ23g-41" value="&lt;pre style=&quot;font-family: &amp;quot;jetbrains mono&amp;quot;; font-size: 10.5pt;&quot;&gt;&lt;pre style=&quot;font-family: &amp;quot;jetbrains mono&amp;quot;; font-size: 10.5pt;&quot;&gt;&lt;span style=&quot;&quot;&gt;tcp_finish_connect&lt;/span&gt;&lt;/pre&gt;&lt;/pre&gt;" style="rounded=1;whiteSpace=wrap;html=1;fontSize=12;glass=0;strokeWidth=1;shadow=0;labelBackgroundColor=none;fontColor=#000000;" vertex="1" parent="WIyWlLk6GJQsqaUBKTNV-1">
          <mxGeometry x="365" y="213" width="134" height="40" as="geometry" />
        </mxCell>
        <mxCell id="KVTQln2U7VDyB-NZJ23g-48" value="" style="edgeStyle=orthogonalEdgeStyle;rounded=0;orthogonalLoop=1;jettySize=auto;html=1;fontColor=#000000;labelBackgroundColor=none;" edge="1" parent="WIyWlLk6GJQsqaUBKTNV-1" source="KVTQln2U7VDyB-NZJ23g-45" target="KVTQln2U7VDyB-NZJ23g-47">
          <mxGeometry relative="1" as="geometry" />
        </mxCell>
        <mxCell id="KVTQln2U7VDyB-NZJ23g-45" value="&lt;pre style=&quot;font-family: &amp;quot;jetbrains mono&amp;quot;; font-size: 10.5pt;&quot;&gt;&lt;pre style=&quot;font-family: &amp;quot;jetbrains mono&amp;quot;; font-size: 10.5pt;&quot;&gt;&lt;pre style=&quot;font-family: &amp;quot;jetbrains mono&amp;quot; ; font-size: 10.5pt&quot;&gt;&lt;span style=&quot;&quot;&gt;tcp_rcv_state_process&lt;/span&gt;&lt;/pre&gt;&lt;/pre&gt;&lt;/pre&gt;" style="rounded=1;whiteSpace=wrap;html=1;fontSize=12;glass=0;strokeWidth=1;shadow=0;labelBackgroundColor=none;fontColor=#000000;" vertex="1" parent="WIyWlLk6GJQsqaUBKTNV-1">
          <mxGeometry x="334" y="44" width="171" height="40" as="geometry" />
        </mxCell>
        <mxCell id="KVTQln2U7VDyB-NZJ23g-53" value="" style="edgeStyle=orthogonalEdgeStyle;rounded=0;orthogonalLoop=1;jettySize=auto;html=1;fontColor=#000000;entryX=0.409;entryY=-0.075;entryDx=0;entryDy=0;entryPerimeter=0;labelBackgroundColor=none;" edge="1" parent="WIyWlLk6GJQsqaUBKTNV-1" source="KVTQln2U7VDyB-NZJ23g-47" target="KVTQln2U7VDyB-NZJ23g-41">
          <mxGeometry relative="1" as="geometry" />
        </mxCell>
        <mxCell id="KVTQln2U7VDyB-NZJ23g-47" value="&lt;pre style=&quot;font-family: &amp;quot;jetbrains mono&amp;quot;; font-size: 10.5pt;&quot;&gt;TCP_SYN_RECV&lt;/pre&gt;" style="rhombus;whiteSpace=wrap;html=1;rounded=1;glass=0;strokeWidth=1;shadow=0;labelBackgroundColor=none;fontColor=#000000;" vertex="1" parent="WIyWlLk6GJQsqaUBKTNV-1">
          <mxGeometry x="347.5" y="118" width="144" height="49" as="geometry" />
        </mxCell>
        <mxCell id="KVTQln2U7VDyB-NZJ23g-52" value="" style="edgeStyle=orthogonalEdgeStyle;rounded=0;orthogonalLoop=1;jettySize=auto;html=1;fontColor=#000000;labelBackgroundColor=none;" edge="1" parent="WIyWlLk6GJQsqaUBKTNV-1" source="KVTQln2U7VDyB-NZJ23g-49" target="KVTQln2U7VDyB-NZJ23g-51">
          <mxGeometry relative="1" as="geometry" />
        </mxCell>
        <mxCell id="KVTQln2U7VDyB-NZJ23g-49" value="&lt;pre style=&quot;font-family: &amp;quot;jetbrains mono&amp;quot;; font-size: 10.5pt;&quot;&gt;tcp_init_transfer&lt;/pre&gt;" style="whiteSpace=wrap;html=1;rounded=1;glass=0;strokeWidth=1;shadow=0;labelBackgroundColor=none;fontColor=#000000;" vertex="1" parent="WIyWlLk6GJQsqaUBKTNV-1">
          <mxGeometry x="372.5" y="326" width="120" height="40" as="geometry" />
        </mxCell>
        <mxCell id="KVTQln2U7VDyB-NZJ23g-56" value="" style="edgeStyle=orthogonalEdgeStyle;rounded=0;orthogonalLoop=1;jettySize=auto;html=1;labelBackgroundColor=none;fontColor=#000000;" edge="1" parent="WIyWlLk6GJQsqaUBKTNV-1" source="KVTQln2U7VDyB-NZJ23g-51" target="KVTQln2U7VDyB-NZJ23g-55">
          <mxGeometry relative="1" as="geometry" />
        </mxCell>
        <mxCell id="KVTQln2U7VDyB-NZJ23g-51" value="&lt;pre style=&quot;font-family: &amp;quot;jetbrains mono&amp;quot;; font-size: 10.5pt;&quot;&gt;&lt;pre style=&quot;font-family: &amp;quot;jetbrains mono&amp;quot; ; font-size: 10.5pt&quot;&gt;tcp_init_congestion_control&lt;/pre&gt;&lt;/pre&gt;" style="whiteSpace=wrap;html=1;rounded=1;glass=0;strokeWidth=1;shadow=0;labelBackgroundColor=none;fontColor=#000000;" vertex="1" parent="WIyWlLk6GJQsqaUBKTNV-1">
          <mxGeometry x="333" y="484" width="200" height="40" as="geometry" />
        </mxCell>
        <mxCell id="KVTQln2U7VDyB-NZJ23g-59" value="" style="edgeStyle=orthogonalEdgeStyle;rounded=0;orthogonalLoop=1;jettySize=auto;html=1;labelBackgroundColor=none;fontColor=#000000;" edge="1" parent="WIyWlLk6GJQsqaUBKTNV-1" source="KVTQln2U7VDyB-NZJ23g-55" target="KVTQln2U7VDyB-NZJ23g-58">
          <mxGeometry relative="1" as="geometry" />
        </mxCell>
        <mxCell id="KVTQln2U7VDyB-NZJ23g-55" value="&lt;pre style=&quot;font-family: &amp;quot;jetbrains mono&amp;quot; ; font-size: 10.5pt&quot;&gt;&lt;pre style=&quot;font-family: &amp;quot;jetbrains mono&amp;quot; ; font-size: 10.5pt&quot;&gt;&lt;pre style=&quot;color: rgb(169, 183, 198); font-family: &amp;quot;jetbrains mono&amp;quot;; font-size: 10.5pt;&quot;&gt;&lt;span style=&quot;color: #9373a5&quot;&gt;icsk_ca_ops&lt;/span&gt;-&amp;gt;&lt;span style=&quot;color: #9373a5&quot;&gt;init&lt;/span&gt;(sk)&lt;span style=&quot;color: #cc7832&quot;&gt;;&lt;/span&gt;&lt;/pre&gt;&lt;/pre&gt;&lt;/pre&gt;" style="whiteSpace=wrap;html=1;rounded=1;glass=0;strokeWidth=1;shadow=0;labelBackgroundColor=none;fontColor=#000000;" vertex="1" parent="WIyWlLk6GJQsqaUBKTNV-1">
          <mxGeometry x="333" y="604" width="200" height="40" as="geometry" />
        </mxCell>
        <mxCell id="KVTQln2U7VDyB-NZJ23g-72" value="" style="edgeStyle=orthogonalEdgeStyle;rounded=0;orthogonalLoop=1;jettySize=auto;html=1;labelBackgroundColor=none;fontColor=#000000;" edge="1" parent="WIyWlLk6GJQsqaUBKTNV-1" source="KVTQln2U7VDyB-NZJ23g-58" target="KVTQln2U7VDyB-NZJ23g-71">
          <mxGeometry relative="1" as="geometry" />
        </mxCell>
        <mxCell id="KVTQln2U7VDyB-NZJ23g-58" value="&lt;pre style=&quot;font-family: &amp;#34;jetbrains mono&amp;#34; ; font-size: 10.5pt&quot;&gt;&lt;pre style=&quot;font-family: &amp;#34;jetbrains mono&amp;#34; ; font-size: 10.5pt&quot;&gt;&lt;pre style=&quot;color: rgb(169 , 183 , 198) ; font-family: &amp;#34;jetbrains mono&amp;#34; ; font-size: 10.5pt&quot;&gt;&lt;pre style=&quot;background-color: rgb(43 , 43 , 43) ; font-family: &amp;#34;jetbrains mono&amp;#34; ; font-size: 10.5pt&quot;&gt;&lt;span style=&quot;color: #ffc66d&quot;&gt;bbr_init&lt;/span&gt;&lt;/pre&gt;&lt;/pre&gt;&lt;/pre&gt;&lt;/pre&gt;" style="whiteSpace=wrap;html=1;rounded=1;glass=0;strokeWidth=1;shadow=0;labelBackgroundColor=none;fontColor=#000000;" vertex="1" parent="WIyWlLk6GJQsqaUBKTNV-1">
          <mxGeometry x="332" y="689" width="200" height="40" as="geometry" />
        </mxCell>
        <mxCell id="KVTQln2U7VDyB-NZJ23g-60" value="bbr初始化" style="swimlane;fontStyle=0;childLayout=stackLayout;horizontal=1;startSize=30;horizontalStack=0;resizeParent=1;resizeParentMax=0;resizeLast=0;collapsible=1;marginBottom=0;labelBackgroundColor=none;fontColor=#000000;fillColor=#FFFFFF;" vertex="1" collapsed="1" parent="WIyWlLk6GJQsqaUBKTNV-1">
          <mxGeometry x="393" y="778" width="80" height="30" as="geometry">
            <mxRectangle x="847" y="524" width="140" height="120" as="alternateBounds" />
          </mxGeometry>
        </mxCell>
        <mxCell id="KVTQln2U7VDyB-NZJ23g-61" value="sk_pacing_status = need" style="text;strokeColor=none;fillColor=none;align=left;verticalAlign=middle;spacingLeft=4;spacingRight=4;overflow=hidden;points=[[0,0.5],[1,0.5]];portConstraint=eastwest;rotatable=0;labelBackgroundColor=none;fontColor=#000000;" vertex="1" parent="KVTQln2U7VDyB-NZJ23g-60">
          <mxGeometry y="30" width="80" height="30" as="geometry" />
        </mxCell>
        <mxCell id="KVTQln2U7VDyB-NZJ23g-62" value="Item 2" style="text;strokeColor=none;fillColor=none;align=left;verticalAlign=middle;spacingLeft=4;spacingRight=4;overflow=hidden;points=[[0,0.5],[1,0.5]];portConstraint=eastwest;rotatable=0;labelBackgroundColor=none;fontColor=#000000;" vertex="1" parent="KVTQln2U7VDyB-NZJ23g-60">
          <mxGeometry y="60" width="80" height="30" as="geometry" />
        </mxCell>
        <mxCell id="KVTQln2U7VDyB-NZJ23g-63" value="Item 3" style="text;strokeColor=none;fillColor=none;align=left;verticalAlign=middle;spacingLeft=4;spacingRight=4;overflow=hidden;points=[[0,0.5],[1,0.5]];portConstraint=eastwest;rotatable=0;labelBackgroundColor=none;fontColor=#000000;" vertex="1" parent="KVTQln2U7VDyB-NZJ23g-60">
          <mxGeometry y="90" width="80" height="30" as="geometry" />
        </mxCell>
        <mxCell id="KVTQln2U7VDyB-NZJ23g-71" value="" style="shape=singleArrow;whiteSpace=wrap;html=1;arrowWidth=0.4;arrowSize=0.4;fontColor=#000000;rounded=1;glass=0;strokeWidth=1;shadow=0;labelBackgroundColor=none;" vertex="1" parent="KVTQln2U7VDyB-NZJ23g-60">
          <mxGeometry y="120" width="80" height="60" as="geometry" />
        </mxCell>
        <mxCell id="KVTQln2U7VDyB-NZJ23g-66" value="" style="edgeStyle=orthogonalEdgeStyle;rounded=0;orthogonalLoop=1;jettySize=auto;html=1;labelBackgroundColor=none;fontColor=#000000;" edge="1" parent="WIyWlLk6GJQsqaUBKTNV-1" source="KVTQln2U7VDyB-NZJ23g-64" target="KVTQln2U7VDyB-NZJ23g-65">
          <mxGeometry relative="1" as="geometry" />
        </mxCell>
        <mxCell id="KVTQln2U7VDyB-NZJ23g-64" value="&lt;pre style=&quot;font-family: &amp;#34;jetbrains mono&amp;#34; ; font-size: 10.5pt&quot;&gt;&lt;pre style=&quot;font-family: &amp;#34;jetbrains mono&amp;#34; ; font-size: 10.5pt&quot;&gt;&lt;pre style=&quot;font-family: &amp;#34;jetbrains mono&amp;#34; ; font-size: 10.5pt&quot;&gt;&lt;pre style=&quot;background-color: #2b2b2b ; color: #a9b7c6 ; font-family: &amp;#34;jetbrains mono&amp;#34; ; font-size: 10.5pt&quot;&gt;&lt;span style=&quot;color: #ffc66d&quot;&gt;tcp_enter_loss&lt;/span&gt;&lt;/pre&gt;&lt;/pre&gt;&lt;/pre&gt;&lt;/pre&gt;" style="rounded=1;whiteSpace=wrap;html=1;fontSize=12;glass=0;strokeWidth=1;shadow=0;labelBackgroundColor=none;fontColor=#000000;" vertex="1" parent="WIyWlLk6GJQsqaUBKTNV-1">
          <mxGeometry x="573" y="52" width="171" height="40" as="geometry" />
        </mxCell>
        <mxCell id="KVTQln2U7VDyB-NZJ23g-68" value="" style="edgeStyle=orthogonalEdgeStyle;rounded=0;orthogonalLoop=1;jettySize=auto;html=1;labelBackgroundColor=none;fontColor=#000000;" edge="1" parent="WIyWlLk6GJQsqaUBKTNV-1" source="KVTQln2U7VDyB-NZJ23g-65" target="KVTQln2U7VDyB-NZJ23g-67">
          <mxGeometry relative="1" as="geometry" />
        </mxCell>
        <mxCell id="KVTQln2U7VDyB-NZJ23g-65" value="&lt;pre style=&quot;font-family: &amp;#34;jetbrains mono&amp;#34; ; font-size: 10.5pt&quot;&gt;&lt;pre style=&quot;font-family: &amp;#34;jetbrains mono&amp;#34; ; font-size: 10.5pt&quot;&gt;&lt;pre style=&quot;font-family: &amp;#34;jetbrains mono&amp;#34; ; font-size: 10.5pt&quot;&gt;&lt;pre style=&quot;background-color: #2b2b2b ; color: #a9b7c6 ; font-family: &amp;#34;jetbrains mono&amp;#34; ; font-size: 10.5pt&quot;&gt;&lt;pre style=&quot;font-family: &amp;#34;jetbrains mono&amp;#34; ; font-size: 10.5pt&quot;&gt;tcp_set_ca_state（loss)&lt;/pre&gt;&lt;/pre&gt;&lt;/pre&gt;&lt;/pre&gt;&lt;/pre&gt;" style="rounded=1;whiteSpace=wrap;html=1;fontSize=12;glass=0;strokeWidth=1;shadow=0;labelBackgroundColor=none;fontColor=#000000;" vertex="1" parent="WIyWlLk6GJQsqaUBKTNV-1">
          <mxGeometry x="573" y="172" width="171" height="40" as="geometry" />
        </mxCell>
        <mxCell id="KVTQln2U7VDyB-NZJ23g-70" value="" style="edgeStyle=orthogonalEdgeStyle;rounded=0;orthogonalLoop=1;jettySize=auto;html=1;labelBackgroundColor=none;fontColor=#000000;" edge="1" parent="WIyWlLk6GJQsqaUBKTNV-1" source="KVTQln2U7VDyB-NZJ23g-67" target="KVTQln2U7VDyB-NZJ23g-69">
          <mxGeometry relative="1" as="geometry" />
        </mxCell>
        <mxCell id="KVTQln2U7VDyB-NZJ23g-67" value="&lt;pre style=&quot;font-family: &amp;#34;jetbrains mono&amp;#34; ; font-size: 10.5pt&quot;&gt;&lt;pre style=&quot;font-family: &amp;#34;jetbrains mono&amp;#34; ; font-size: 10.5pt&quot;&gt;&lt;pre style=&quot;font-family: &amp;#34;jetbrains mono&amp;#34; ; font-size: 10.5pt&quot;&gt;&lt;pre style=&quot;background-color: #2b2b2b ; color: #a9b7c6 ; font-family: &amp;#34;jetbrains mono&amp;#34; ; font-size: 10.5pt&quot;&gt;&lt;pre style=&quot;font-family: &amp;#34;jetbrains mono&amp;#34; ; font-size: 10.5pt&quot;&gt;&lt;pre style=&quot;font-family: &amp;#34;jetbrains mono&amp;#34; ; font-size: 10.5pt&quot;&gt;icsk_ca_ops-&amp;gt;set_state&lt;/pre&gt;&lt;/pre&gt;&lt;/pre&gt;&lt;/pre&gt;&lt;/pre&gt;&lt;/pre&gt;" style="rounded=1;whiteSpace=wrap;html=1;fontSize=12;glass=0;strokeWidth=1;shadow=0;labelBackgroundColor=none;fontColor=#000000;" vertex="1" parent="WIyWlLk6GJQsqaUBKTNV-1">
          <mxGeometry x="573" y="292" width="171" height="40" as="geometry" />
        </mxCell>
        <mxCell id="KVTQln2U7VDyB-NZJ23g-69" value="&lt;pre style=&quot;font-family: &amp;#34;jetbrains mono&amp;#34; ; font-size: 10.5pt&quot;&gt;&lt;pre style=&quot;font-family: &amp;#34;jetbrains mono&amp;#34; ; font-size: 10.5pt&quot;&gt;&lt;pre style=&quot;font-family: &amp;#34;jetbrains mono&amp;#34; ; font-size: 10.5pt&quot;&gt;&lt;pre style=&quot;background-color: #2b2b2b ; color: #a9b7c6 ; font-family: &amp;#34;jetbrains mono&amp;#34; ; font-size: 10.5pt&quot;&gt;&lt;pre style=&quot;font-family: &amp;#34;jetbrains mono&amp;#34; ; font-size: 10.5pt&quot;&gt;&lt;pre style=&quot;font-family: &amp;#34;jetbrains mono&amp;#34; ; font-size: 10.5pt&quot;&gt;&lt;pre style=&quot;font-family: &amp;#34;jetbrains mono&amp;#34; ; font-size: 10.5pt&quot;&gt;&lt;span style=&quot;color: #ffc66d&quot;&gt;bbr_set_state&lt;/span&gt;&lt;/pre&gt;&lt;/pre&gt;&lt;/pre&gt;&lt;/pre&gt;&lt;/pre&gt;&lt;/pre&gt;&lt;/pre&gt;" style="rounded=1;whiteSpace=wrap;html=1;fontSize=12;glass=0;strokeWidth=1;shadow=0;labelBackgroundColor=none;fontColor=#000000;" vertex="1" parent="WIyWlLk6GJQsqaUBKTNV-1">
          <mxGeometry x="573" y="392" width="171" height="40" as="geometry" />
        </mxCell>
        <mxCell id="KVTQln2U7VDyB-NZJ23g-76" value="" style="edgeStyle=orthogonalEdgeStyle;rounded=0;orthogonalLoop=1;jettySize=auto;html=1;labelBackgroundColor=none;fontColor=#000000;" edge="1" parent="WIyWlLk6GJQsqaUBKTNV-1" source="KVTQln2U7VDyB-NZJ23g-74" target="KVTQln2U7VDyB-NZJ23g-75">
          <mxGeometry relative="1" as="geometry" />
        </mxCell>
        <mxCell id="KVTQln2U7VDyB-NZJ23g-74" value="&lt;pre style=&quot;font-family: &amp;#34;jetbrains mono&amp;#34; ; font-size: 10.5pt&quot;&gt;&lt;pre style=&quot;font-family: &amp;#34;jetbrains mono&amp;#34; ; font-size: 10.5pt&quot;&gt;&lt;pre style=&quot;font-family: &amp;#34;jetbrains mono&amp;#34; ; font-size: 10.5pt&quot;&gt;&lt;pre style=&quot;background-color: #2b2b2b ; color: #a9b7c6 ; font-family: &amp;#34;jetbrains mono&amp;#34; ; font-size: 10.5pt&quot;&gt;&lt;pre style=&quot;font-family: &amp;#34;jetbrains mono&amp;#34; ; font-size: 10.5pt&quot;&gt;&lt;span style=&quot;color: #ffc66d&quot;&gt;tcp_in_ack_event&lt;/span&gt;&lt;/pre&gt;&lt;/pre&gt;&lt;/pre&gt;&lt;/pre&gt;&lt;/pre&gt;" style="rounded=1;whiteSpace=wrap;html=1;fontSize=12;glass=0;strokeWidth=1;shadow=0;labelBackgroundColor=none;fontColor=#000000;" vertex="1" parent="WIyWlLk6GJQsqaUBKTNV-1">
          <mxGeometry x="791" y="156" width="171" height="40" as="geometry" />
        </mxCell>
        <mxCell id="KVTQln2U7VDyB-NZJ23g-78" value="" style="edgeStyle=orthogonalEdgeStyle;rounded=0;orthogonalLoop=1;jettySize=auto;html=1;labelBackgroundColor=none;fontColor=#000000;" edge="1" parent="WIyWlLk6GJQsqaUBKTNV-1" source="KVTQln2U7VDyB-NZJ23g-75" target="KVTQln2U7VDyB-NZJ23g-77">
          <mxGeometry relative="1" as="geometry" />
        </mxCell>
        <mxCell id="KVTQln2U7VDyB-NZJ23g-75" value="&lt;pre style=&quot;font-family: &amp;#34;jetbrains mono&amp;#34; ; font-size: 10.5pt&quot;&gt;&lt;pre style=&quot;font-family: &amp;#34;jetbrains mono&amp;#34; ; font-size: 10.5pt&quot;&gt;&lt;pre style=&quot;font-family: &amp;#34;jetbrains mono&amp;#34; ; font-size: 10.5pt&quot;&gt;&lt;pre style=&quot;background-color: #2b2b2b ; color: #a9b7c6 ; font-family: &amp;#34;jetbrains mono&amp;#34; ; font-size: 10.5pt&quot;&gt;&lt;pre style=&quot;font-family: &amp;#34;jetbrains mono&amp;#34; ; font-size: 10.5pt&quot;&gt;&lt;pre style=&quot;font-family: &amp;#34;jetbrains mono&amp;#34; ; font-size: 10.5pt&quot;&gt;&lt;span style=&quot;color: #9373a5&quot;&gt;icsk_ca_ops&lt;/span&gt;-&amp;gt;&lt;span style=&quot;color: #9373a5&quot;&gt;in_ack_event&lt;/span&gt;&lt;/pre&gt;&lt;/pre&gt;&lt;/pre&gt;&lt;/pre&gt;&lt;/pre&gt;&lt;/pre&gt;" style="rounded=1;whiteSpace=wrap;html=1;fontSize=12;glass=0;strokeWidth=1;shadow=0;labelBackgroundColor=none;fontColor=#000000;" vertex="1" parent="WIyWlLk6GJQsqaUBKTNV-1">
          <mxGeometry x="783" y="276" width="185" height="40" as="geometry" />
        </mxCell>
        <mxCell id="KVTQln2U7VDyB-NZJ23g-77" value="&lt;pre style=&quot;font-family: &amp;#34;jetbrains mono&amp;#34; ; font-size: 10.5pt&quot;&gt;&lt;pre style=&quot;font-family: &amp;#34;jetbrains mono&amp;#34; ; font-size: 10.5pt&quot;&gt;&lt;pre style=&quot;font-family: &amp;#34;jetbrains mono&amp;#34; ; font-size: 10.5pt&quot;&gt;&lt;pre style=&quot;background-color: rgb(43 , 43 , 43) ; font-family: &amp;#34;jetbrains mono&amp;#34; ; font-size: 10.5pt&quot;&gt;&lt;pre style=&quot;font-family: &amp;#34;jetbrains mono&amp;#34; ; font-size: 10.5pt&quot;&gt;&lt;pre style=&quot;font-family: &amp;#34;jetbrains mono&amp;#34; ; font-size: 10.5pt&quot;&gt;&lt;font color=&quot;#9373a5&quot;&gt;bbr null&lt;/font&gt;&lt;/pre&gt;&lt;/pre&gt;&lt;/pre&gt;&lt;/pre&gt;&lt;/pre&gt;&lt;/pre&gt;" style="rounded=1;whiteSpace=wrap;html=1;fontSize=12;glass=0;strokeWidth=1;shadow=0;labelBackgroundColor=none;fontColor=#000000;" vertex="1" parent="WIyWlLk6GJQsqaUBKTNV-1">
          <mxGeometry x="783" y="396" width="185" height="40" as="geometry" />
        </mxCell>
        <mxCell id="KVTQln2U7VDyB-NZJ23g-81" value="" style="edgeStyle=orthogonalEdgeStyle;rounded=0;orthogonalLoop=1;jettySize=auto;html=1;labelBackgroundColor=none;fontColor=#000000;" edge="1" parent="WIyWlLk6GJQsqaUBKTNV-1" source="KVTQln2U7VDyB-NZJ23g-79" target="KVTQln2U7VDyB-NZJ23g-80">
          <mxGeometry relative="1" as="geometry" />
        </mxCell>
        <mxCell id="KVTQln2U7VDyB-NZJ23g-79" value="&lt;pre style=&quot;font-family: &amp;#34;jetbrains mono&amp;#34; ; font-size: 10.5pt&quot;&gt;&lt;pre style=&quot;font-family: &amp;#34;jetbrains mono&amp;#34; ; font-size: 10.5pt&quot;&gt;&lt;pre style=&quot;font-family: &amp;#34;jetbrains mono&amp;#34; ; font-size: 10.5pt&quot;&gt;&lt;pre style=&quot;background-color: #2b2b2b ; color: #a9b7c6 ; font-family: &amp;#34;jetbrains mono&amp;#34; ; font-size: 10.5pt&quot;&gt;&lt;pre style=&quot;font-family: &amp;#34;jetbrains mono&amp;#34; ; font-size: 10.5pt&quot;&gt;&lt;pre style=&quot;font-family: &amp;#34;jetbrains mono&amp;#34; ; font-size: 10.5pt&quot;&gt;&lt;span style=&quot;color: #ffc66d&quot;&gt;tcp_ca_event&lt;/span&gt;&lt;/pre&gt;&lt;/pre&gt;&lt;/pre&gt;&lt;/pre&gt;&lt;/pre&gt;&lt;/pre&gt;" style="rounded=1;whiteSpace=wrap;html=1;fontSize=12;glass=0;strokeWidth=1;shadow=0;labelBackgroundColor=none;fontColor=#000000;" vertex="1" parent="WIyWlLk6GJQsqaUBKTNV-1">
          <mxGeometry x="1004" y="52" width="171" height="40" as="geometry" />
        </mxCell>
        <mxCell id="KVTQln2U7VDyB-NZJ23g-83" value="" style="edgeStyle=orthogonalEdgeStyle;rounded=0;orthogonalLoop=1;jettySize=auto;html=1;labelBackgroundColor=none;fontColor=#000000;" edge="1" parent="WIyWlLk6GJQsqaUBKTNV-1" source="KVTQln2U7VDyB-NZJ23g-80" target="KVTQln2U7VDyB-NZJ23g-82">
          <mxGeometry relative="1" as="geometry" />
        </mxCell>
        <mxCell id="KVTQln2U7VDyB-NZJ23g-80" value="&lt;pre style=&quot;font-family: &amp;#34;jetbrains mono&amp;#34; ; font-size: 10.5pt&quot;&gt;&lt;pre style=&quot;font-family: &amp;#34;jetbrains mono&amp;#34; ; font-size: 10.5pt&quot;&gt;&lt;pre style=&quot;font-family: &amp;#34;jetbrains mono&amp;#34; ; font-size: 10.5pt&quot;&gt;&lt;pre style=&quot;background-color: #2b2b2b ; color: #a9b7c6 ; font-family: &amp;#34;jetbrains mono&amp;#34; ; font-size: 10.5pt&quot;&gt;&lt;pre style=&quot;font-family: &amp;#34;jetbrains mono&amp;#34; ; font-size: 10.5pt&quot;&gt;&lt;pre style=&quot;font-family: &amp;#34;jetbrains mono&amp;#34; ; font-size: 10.5pt&quot;&gt;&lt;pre style=&quot;font-family: &amp;#34;jetbrains mono&amp;#34; ; font-size: 10.5pt&quot;&gt;&lt;span style=&quot;color: #9373a5&quot;&gt;icsk_ca_ops&lt;/span&gt;-&amp;gt;&lt;span style=&quot;color: #9373a5&quot;&gt;cwnd_event&lt;/span&gt;&lt;/pre&gt;&lt;/pre&gt;&lt;/pre&gt;&lt;/pre&gt;&lt;/pre&gt;&lt;/pre&gt;&lt;/pre&gt;" style="rounded=1;whiteSpace=wrap;html=1;fontSize=12;glass=0;strokeWidth=1;shadow=0;labelBackgroundColor=none;fontColor=#000000;" vertex="1" parent="WIyWlLk6GJQsqaUBKTNV-1">
          <mxGeometry x="1004" y="172" width="171" height="40" as="geometry" />
        </mxCell>
        <mxCell id="KVTQln2U7VDyB-NZJ23g-82" value="&lt;pre style=&quot;font-family: &amp;#34;jetbrains mono&amp;#34; ; font-size: 10.5pt&quot;&gt;&lt;pre style=&quot;font-family: &amp;#34;jetbrains mono&amp;#34; ; font-size: 10.5pt&quot;&gt;&lt;pre style=&quot;font-family: &amp;#34;jetbrains mono&amp;#34; ; font-size: 10.5pt&quot;&gt;&lt;pre style=&quot;background-color: #2b2b2b ; color: #a9b7c6 ; font-family: &amp;#34;jetbrains mono&amp;#34; ; font-size: 10.5pt&quot;&gt;&lt;pre style=&quot;font-family: &amp;#34;jetbrains mono&amp;#34; ; font-size: 10.5pt&quot;&gt;&lt;pre style=&quot;font-family: &amp;#34;jetbrains mono&amp;#34; ; font-size: 10.5pt&quot;&gt;&lt;pre style=&quot;font-family: &amp;#34;jetbrains mono&amp;#34; ; font-size: 10.5pt&quot;&gt;&lt;pre style=&quot;font-family: &amp;#34;jetbrains mono&amp;#34; ; font-size: 10.5pt&quot;&gt;&lt;span style=&quot;color: #ffc66d&quot;&gt;bbr_cwnd_event&lt;/span&gt;&lt;/pre&gt;&lt;/pre&gt;&lt;/pre&gt;&lt;/pre&gt;&lt;/pre&gt;&lt;/pre&gt;&lt;/pre&gt;&lt;/pre&gt;" style="rounded=1;whiteSpace=wrap;html=1;fontSize=12;glass=0;strokeWidth=1;shadow=0;labelBackgroundColor=none;fontColor=#000000;" vertex="1" parent="WIyWlLk6GJQsqaUBKTNV-1">
          <mxGeometry x="1004" y="292" width="171" height="40" as="geometry" />
        </mxCell>
        <mxCell id="KVTQln2U7VDyB-NZJ23g-85" value="" style="edgeStyle=orthogonalEdgeStyle;rounded=0;orthogonalLoop=1;jettySize=auto;html=1;labelBackgroundColor=none;fontColor=#000000;" edge="1" parent="WIyWlLk6GJQsqaUBKTNV-1" source="KVTQln2U7VDyB-NZJ23g-84" target="KVTQln2U7VDyB-NZJ23g-74">
          <mxGeometry relative="1" as="geometry" />
        </mxCell>
        <mxCell id="KVTQln2U7VDyB-NZJ23g-87" value="" style="edgeStyle=orthogonalEdgeStyle;rounded=0;orthogonalLoop=1;jettySize=auto;html=1;labelBackgroundColor=none;fontColor=#000000;" edge="1" parent="WIyWlLk6GJQsqaUBKTNV-1" source="KVTQln2U7VDyB-NZJ23g-84" target="KVTQln2U7VDyB-NZJ23g-86">
          <mxGeometry relative="1" as="geometry">
            <Array as="points">
              <mxPoint x="877" y="36" />
            </Array>
          </mxGeometry>
        </mxCell>
        <mxCell id="KVTQln2U7VDyB-NZJ23g-84" value="&lt;pre style=&quot;font-family: &amp;#34;jetbrains mono&amp;#34; ; font-size: 10.5pt&quot;&gt;&lt;pre style=&quot;font-family: &amp;#34;jetbrains mono&amp;#34; ; font-size: 10.5pt&quot;&gt;&lt;pre style=&quot;font-family: &amp;#34;jetbrains mono&amp;#34; ; font-size: 10.5pt&quot;&gt;&lt;pre style=&quot;background-color: #2b2b2b ; color: #a9b7c6 ; font-family: &amp;#34;jetbrains mono&amp;#34; ; font-size: 10.5pt&quot;&gt;&lt;pre style=&quot;font-family: &amp;#34;jetbrains mono&amp;#34; ; font-size: 10.5pt&quot;&gt;&lt;pre style=&quot;font-family: &amp;#34;jetbrains mono&amp;#34; ; font-size: 10.5pt&quot;&gt;&lt;pre style=&quot;font-family: &amp;#34;jetbrains mono&amp;#34; ; font-size: 10.5pt&quot;&gt;&lt;span style=&quot;color: #ffc66d&quot;&gt;tcp_ack&lt;/span&gt;&lt;/pre&gt;&lt;/pre&gt;&lt;/pre&gt;&lt;/pre&gt;&lt;/pre&gt;&lt;/pre&gt;&lt;/pre&gt;" style="rounded=1;whiteSpace=wrap;html=1;fontSize=12;glass=0;strokeWidth=1;shadow=0;labelBackgroundColor=none;fontColor=#000000;" vertex="1" parent="WIyWlLk6GJQsqaUBKTNV-1">
          <mxGeometry x="791" y="52" width="171" height="40" as="geometry" />
        </mxCell>
        <mxCell id="KVTQln2U7VDyB-NZJ23g-89" value="" style="edgeStyle=orthogonalEdgeStyle;rounded=0;orthogonalLoop=1;jettySize=auto;html=1;labelBackgroundColor=none;fontColor=#000000;" edge="1" parent="WIyWlLk6GJQsqaUBKTNV-1" source="KVTQln2U7VDyB-NZJ23g-86" target="KVTQln2U7VDyB-NZJ23g-88">
          <mxGeometry relative="1" as="geometry" />
        </mxCell>
        <mxCell id="KVTQln2U7VDyB-NZJ23g-86" value="&lt;pre style=&quot;font-family: &amp;#34;jetbrains mono&amp;#34; ; font-size: 10.5pt&quot;&gt;&lt;pre style=&quot;font-family: &amp;#34;jetbrains mono&amp;#34; ; font-size: 10.5pt&quot;&gt;&lt;pre style=&quot;font-family: &amp;#34;jetbrains mono&amp;#34; ; font-size: 10.5pt&quot;&gt;&lt;pre style=&quot;background-color: #2b2b2b ; color: #a9b7c6 ; font-family: &amp;#34;jetbrains mono&amp;#34; ; font-size: 10.5pt&quot;&gt;&lt;pre style=&quot;font-family: &amp;#34;jetbrains mono&amp;#34; ; font-size: 10.5pt&quot;&gt;&lt;pre style=&quot;font-family: &amp;#34;jetbrains mono&amp;#34; ; font-size: 10.5pt&quot;&gt;&lt;pre style=&quot;font-family: &amp;#34;jetbrains mono&amp;#34; ; font-size: 10.5pt&quot;&gt;&lt;pre style=&quot;font-family: &amp;#34;jetbrains mono&amp;#34; ; font-size: 10.5pt&quot;&gt;tcp_cong_control&lt;/pre&gt;&lt;/pre&gt;&lt;/pre&gt;&lt;/pre&gt;&lt;/pre&gt;&lt;/pre&gt;&lt;/pre&gt;&lt;/pre&gt;" style="rounded=1;whiteSpace=wrap;html=1;fontSize=12;glass=0;strokeWidth=1;shadow=0;labelBackgroundColor=none;fontColor=#000000;" vertex="1" parent="WIyWlLk6GJQsqaUBKTNV-1">
          <mxGeometry x="1226" y="52" width="171" height="40" as="geometry" />
        </mxCell>
        <mxCell id="KVTQln2U7VDyB-NZJ23g-88" value="&lt;pre style=&quot;font-family: &amp;#34;jetbrains mono&amp;#34; ; font-size: 10.5pt&quot;&gt;&lt;pre style=&quot;font-family: &amp;#34;jetbrains mono&amp;#34; ; font-size: 10.5pt&quot;&gt;&lt;pre style=&quot;font-family: &amp;#34;jetbrains mono&amp;#34; ; font-size: 10.5pt&quot;&gt;&lt;pre style=&quot;background-color: #2b2b2b ; color: #a9b7c6 ; font-family: &amp;#34;jetbrains mono&amp;#34; ; font-size: 10.5pt&quot;&gt;&lt;pre style=&quot;font-family: &amp;#34;jetbrains mono&amp;#34; ; font-size: 10.5pt&quot;&gt;&lt;pre style=&quot;font-family: &amp;#34;jetbrains mono&amp;#34; ; font-size: 10.5pt&quot;&gt;&lt;pre style=&quot;font-family: &amp;#34;jetbrains mono&amp;#34; ; font-size: 10.5pt&quot;&gt;&lt;pre style=&quot;font-family: &amp;#34;jetbrains mono&amp;#34; ; font-size: 10.5pt&quot;&gt;&lt;pre style=&quot;font-family: &amp;#34;jetbrains mono&amp;#34; ; font-size: 10.5pt&quot;&gt;&lt;span style=&quot;color: #9373a5&quot;&gt;icsk_ca_ops&lt;/span&gt;-&amp;gt;&lt;span style=&quot;color: #9373a5&quot;&gt;cong_control&lt;/span&gt;&lt;/pre&gt;&lt;/pre&gt;&lt;/pre&gt;&lt;/pre&gt;&lt;/pre&gt;&lt;/pre&gt;&lt;/pre&gt;&lt;/pre&gt;&lt;/pre&gt;" style="rounded=1;whiteSpace=wrap;html=1;fontSize=12;glass=0;strokeWidth=1;shadow=0;labelBackgroundColor=none;fontColor=#000000;" vertex="1" parent="WIyWlLk6GJQsqaUBKTNV-1">
          <mxGeometry x="1214" y="172" width="194" height="40" as="geometry" />
        </mxCell>
      </root>
    </mxGraphModel>
  </diagram>
</mxfile>
